<?xml version="1.0" encoding="utf-8" ?><svg xmlns="http://www.w3.org/2000/svg" xmlns:xlink="http://www.w3.org/1999/xlink" width="685" height="635" viewBox="0 0 685 635"><clipPath id="cl_3"><rect width="685" height="635"/></clipPath><g clip-path="url(#cl_3)"><path fill="#5A31AE" transform="translate(-172 -163)" d="M443.127 175.706C469.78 172.784 495.638 186.799 517.151 200.691C531.256 190.455 546.053 181.915 563.253 178.204C591.374 172.137 622.796 177.545 646.93 193.239C670.789 208.669 687.513 232.974 693.398 260.772C707.125 261.287 719.716 261.989 732.791 266.717C789.777 287.327 815.322 345.061 795.041 401.217C808.509 410.25 820.45 423.339 828.667 437.262C843.31 461.876 847.331 491.381 839.809 519.016C833.43 543.984 817.377 565.386 795.195 578.501C809.992 633.252 780.405 693.777 723.675 707.194C712.898 709.743 703.814 709.966 692.894 709.966C690.522 715.811 688.289 721.404 685.373 727.019C663.996 768.169 627.808 788.746 581.88 785.808C555.388 783.499 534.128 773.03 514.653 755.05C501.809 768.268 483.074 777.858 465.44 782.633C413.388 796.726 361.312 770.931 340.2 721.439C338.611 717.716 336.868 713.862 335.843 709.948C325.898 709.763 317.692 709.458 307.87 707.362C282.703 702.146 260.734 686.934 246.996 665.212C229.296 637.789 227.473 610.019 234.149 578.96C220.53 570.161 210.231 560.457 201.403 546.774C186.835 523.863 181.973 496.101 187.887 469.603C193.758 441.568 210.514 417.01 234.476 401.319C229.962 391.8 227.898 377.848 227.725 367.424C227.391 339.154 238.371 311.923 258.22 291.792C280.587 268.76 306.476 261.253 337.577 260.902C342.176 243.76 350.505 227.845 361.969 214.296C383.18 189.088 411.069 178.352 443.127 175.706Z"/><path fill="#AF79F5" transform="translate(-172 -163)" d="M444.454 194.709C461.285 193.599 484.204 200.253 497.643 210.492C503.337 214.353 509.776 221.551 516.105 223.942C519.026 224.53 523.937 220.771 525.84 218.952C571.986 174.827 649.605 193.463 672.152 252.745C676.611 263.313 673.199 282.907 690.313 280.343C700.118 278.874 709.72 279.635 719.075 281.965C741.857 287.702 761.37 302.368 773.213 322.657C784.816 342.304 786.534 364.519 780.651 386.487C778.81 393.362 775.123 399.611 773.286 406.97L773.077 407.824C777.204 414.389 785.782 416.994 791.895 421.513C796.435 424.869 800.465 429.045 803.97 433.469C817.958 451.128 827.599 477.81 825.018 500.523C822.53 522.407 810.698 544.85 792.817 558.078C788.058 561.599 781.157 563.492 776.49 567.188C774.453 568.801 773.411 570.836 773.584 573.448C773.905 578.279 776.641 583.045 778.164 587.567C780.724 595.172 781.189 607.86 780.218 615.738C775.199 656.453 749.624 686.541 707.556 690.683C702.105 691.22 682.286 689.758 679.758 691.469C673.801 698.447 673.877 711.129 669.364 719.028C649.429 753.919 619.416 771.261 578.986 766.862C556.419 763.728 539.384 753.33 523.688 737.603C522.088 736 515.86 730.097 513.603 731.272C507.291 734.555 502.653 740.321 497.416 744.995C485.912 755.128 471.764 761.894 457.02 765.831C415.659 776.381 369.323 751.156 355.888 710.627C354.171 705.448 353.596 698.921 352.255 693.429C350.355 691.695 348.716 690.748 346.567 689.371C318.097 694.502 293.08 687.969 272.493 667.222C253.25 647.83 245.745 621.376 250.396 594.581C251.756 586.747 254.845 579.157 255.05 571.185C254.183 564.357 241.104 561.822 236.974 558.744C217.703 544.38 203.613 518.366 203.461 494.391C203.3 468.872 213.677 442.138 233.735 426.033C240.452 420.641 248.071 416.538 254.285 410.56C258.978 406.041 250.569 391.939 249.266 386.188C247.949 380.379 247.223 376.446 246.809 370.2C245.407 347.724 253.019 325.615 267.962 308.766C283.348 291.618 304.856 281.201 327.85 279.761C331.989 279.533 349.991 281.976 351.929 278.629C355.075 273.198 356.613 263.136 358.702 256.742C362.266 245.837 367.214 236.663 374.899 228.073C394.891 205.443 414.909 196.703 444.454 194.709Z"/><path fill="#242340" transform="translate(-172 -163)" d="M418.877 434.604C462.154 433.359 467.56 506.166 425.438 517.497C384.513 518.256 379.168 457.22 408.618 438.536C411.698 436.582 415.365 435.519 418.877 434.604Z"/><path fill="#FFFFFE" transform="translate(-172 -163)" d="M431.886 453.954C444.465 454.255 444.97 466.546 435.766 473.315C423.879 473.849 424.138 461.132 431.886 453.954Z"/><path fill="#242340" transform="translate(-172 -163)" d="M607.825 434.599C650.632 432.366 657.048 507.353 613.85 517.42C608.699 517.657 603.566 516.647 598.889 514.476C578.319 504.687 574.487 472.785 584.093 454.156C589.733 443.216 596.397 438.34 607.825 434.599Z"/><path fill="#FFFFFE" transform="translate(-172 -163)" d="M620.387 453.944C620.77 453.954 621.153 453.973 621.535 453.998C632.89 454.802 632.377 466.725 624.353 473.251C614.155 474.944 610.549 461.304 620.387 453.944Z"/><path fill="#F888CA" transform="translate(-172 -163)" d="M348.729 489.619C392.353 486.735 408.662 540.94 359.623 552.399C341.851 553.901 322.097 544.467 318.378 525.747C316.972 518.37 318.509 510.734 322.662 504.476C328.838 495.208 338.289 491.624 348.729 489.619Z"/><path fill="#F888CA" transform="translate(-172 -163)" d="M678.156 489.615C687.147 489.018 695.319 490.276 702.842 495.659C709.559 500.457 714.032 507.785 715.23 515.952C716.47 523.884 714.497 531.983 709.747 538.456C703.29 547.255 693.568 551.197 683.114 552.891C675.526 553.444 666.982 551.372 660.555 547.267C653.235 542.663 648.054 535.33 646.159 526.893C644.526 519.531 645.957 511.822 650.123 505.537C656.528 495.867 667.277 491.77 678.156 489.615Z"/><path fill="#242340" transform="translate(-172 -163)" d="M479.169 496.025C489.625 495.727 492.085 511.103 504.444 514.82C515.878 518.258 528.055 518.306 537.47 509.394C542.067 505.043 552.951 487.834 559.094 500.045C560.882 504.029 557.919 510.012 555.899 513.813C539.681 540.527 492.627 539.262 476.603 513.012C472.119 505.666 471.532 500.607 479.169 496.025Z"/></g></svg>